<?xml version="1.0" encoding="UTF-8"?>
<svg version="1.1" xmlns="http://www.w3.org/2000/svg" width="200" height="60">
<path d="M0 0 C3.00064055 1.58215593 5.10669809 3.06785888 7.4375 5.5 C9.94578524 7.90795383 12.95739723 9.33517962 16 11 C16.185625 10.0409375 16.185625 10.0409375 16.375 9.0625 C16.58125 8.381875 16.7875 7.70125 17 7 C20.44212443 5.27893779 24.24587286 5.35368507 28 6 C30.0625 8.5 30.0625 8.5 31 11 C27.78600767 11.08927756 25.0937211 10.8534403 22 10 C21.34 10 20.68 10 20 10 C20.66 12.31 21.32 14.62 22 17 C24.38564077 16.42415568 26.66682784 15.77772405 29 15 C29.66 15.33 30.32 15.66 31 16 C29.125 19.875 29.125 19.875 28 21 C26.0390625 21.203125 26.0390625 21.203125 23.625 21.25 C22.83351562 21.27578125 22.04203125 21.3015625 21.2265625 21.328125 C18.47285965 20.92231616 17.66728342 20.18894879 16 18 C15.505 16.515 15.505 16.515 15 15 C13.37051936 13.77554716 13.37051936 13.77554716 11.4375 12.8125 C10.303125 12.214375 9.16875 11.61625 8 11 C8.0825 12.03125 8.165 13.0625 8.25 14.125 C7.9568741 18.66845151 6.89539517 20.54161133 4 24 C-0.42061533 26.75583041 -4.94692285 26.65355256 -10 26 C-13.36345335 24.31827332 -15.2966206 23.0550691 -17.375 19.9375 C-18 18 -18 18 -18 15 C-20.31 15 -22.62 15 -25 15 C-25 13.68 -25 12.36 -25 11 C-22.69 11 -20.38 11 -18 11 C-17.938125 10.278125 -17.87625 9.55625 -17.8125 8.8125 C-16.7463595 5.12201365 -14.85208836 3.50427271 -12 1 C-8.29273244 -0.85363378 -4.04595205 -0.45990853 0 0 Z " fill="#FEFBFC" transform="translate(35,17)"/>
<path d="M0 0 C2.5 2 2.5 2 4 4 C2.91332031 4.14695312 2.91332031 4.14695312 1.8046875 4.296875 C-4.14392808 5.21692754 -8.3009104 6.18992735 -13 10 C-12.46632813 9.71125 -11.93265625 9.4225 -11.3828125 9.125 C-5.51798419 6.20273261 -0.54465031 5.20788955 6 6 C7 7 7 7 7.3125 10.1875 C6.94754918 14.63989996 5.79215105 16.569643 3 20 C-0.6921187 22.46141247 -3.71354805 22.68650207 -8 22 C-11.43952148 19.90637823 -13.78028175 17.88092169 -15 14 C-15.43002518 10.68266291 -15.71759662 8.19510514 -13.94921875 5.25 C-9.87070317 0.24509593 -6.38651483 -0.97186095 0 0 Z " fill="#E63F4C" transform="translate(34,19)"/>
<path d="M0 0 C1.21816406 0.03480469 1.21816406 0.03480469 2.4609375 0.0703125 C3.68683594 0.09738281 3.68683594 0.09738281 4.9375 0.125 C5.87722656 0.15980469 5.87722656 0.15980469 6.8359375 0.1953125 C7.4959375 1.5153125 8.1559375 2.8353125 8.8359375 4.1953125 C6.04770095 5.2279927 4.9682101 5.24040543 2.0859375 4.2578125 C1.3434375 3.9071875 0.6009375 3.5565625 -0.1640625 3.1953125 C-0.1640625 3.8553125 -0.1640625 4.5153125 -0.1640625 5.1953125 C0.9496875 5.3190625 2.0634375 5.4428125 3.2109375 5.5703125 C6.8359375 6.1953125 6.8359375 6.1953125 8.8359375 8.1953125 C9.0859375 10.6953125 9.0859375 10.6953125 8.8359375 13.1953125 C6.8359375 15.1953125 6.8359375 15.1953125 4.453125 15.390625 C3.54820313 15.36742187 2.64328125 15.34421875 1.7109375 15.3203125 C0.34582031 15.29324219 0.34582031 15.29324219 -1.046875 15.265625 C-1.74554688 15.24242187 -2.44421875 15.21921875 -3.1640625 15.1953125 C-3.8240625 13.5453125 -4.4840625 11.8953125 -5.1640625 10.1953125 C-4.4421875 10.3396875 -3.7203125 10.4840625 -2.9765625 10.6328125 C-1.584375 10.91125 -1.584375 10.91125 -0.1640625 11.1953125 C1.50260417 11.52864583 3.16927083 11.86197917 4.8359375 12.1953125 C3.5306985 9.58483449 2.47767176 9.51464827 -0.2265625 8.5703125 C-0.96003906 8.30992188 -1.69351563 8.04953125 -2.44921875 7.78125 C-3.01511719 7.58789062 -3.58101563 7.39453125 -4.1640625 7.1953125 C-4.2890625 4.8203125 -4.2890625 4.8203125 -4.1640625 2.1953125 C-2.1640625 0.1953125 -2.1640625 0.1953125 0 0 Z " fill="#4CAE50" transform="translate(105.1640625,22.8046875)"/>
<path d="M0 0 C1.32 0 2.64 0 4 0 C4.33 1.98 4.66 3.96 5 6 C5.33 5.34 5.66 4.68 6 4 C7.65 4 9.3 4 11 4 C10.608125 4.86625 10.21625 5.7325 9.8125 6.625 C8.63954497 10.05470991 8.63954497 10.05470991 10.375 13.375 C10.91125 14.24125 11.4475 15.1075 12 16 C9.625 16.1875 9.625 16.1875 7 16 C6.34 15.01 5.68 14.02 5 13 C4.67 13.99 4.34 14.98 4 16 C2.68 16 1.36 16 0 16 C0 10.72 0 5.44 0 0 Z " fill="#4CAE50" transform="translate(116,22)"/>
<path d="M0 0 C1.32 0 2.64 0 4 0 C4.33 1.98 4.66 3.96 5 6 C5.33 5.34 5.66 4.68 6 4 C7.65 4 9.3 4 11 4 C10.608125 4.86625 10.21625 5.7325 9.8125 6.625 C8.63954497 10.05470991 8.63954497 10.05470991 10.375 13.375 C10.91125 14.24125 11.4475 15.1075 12 16 C9.625 16.1875 9.625 16.1875 7 16 C6.34 15.01 5.68 14.02 5 13 C4.67 13.99 4.34 14.98 4 16 C2.68 16 1.36 16 0 16 C0 10.72 0 5.44 0 0 Z " fill="#FFFFFF" transform="translate(82,22)"/>
<path d="M0 0 C0.70125 -0.01675781 1.4025 -0.03351562 2.125 -0.05078125 C2.74375 0.06910156 3.3625 0.18898438 4 0.3125 C6.31332486 3.78248729 6.33957563 5.23759248 6 9.3125 C5.01 10.7975 5.01 10.7975 4 12.3125 C-3.01123596 13.09152622 -3.01123596 13.09152622 -6.0625 10.6875 C-7.31856608 7.50546594 -6.92070253 5.57037048 -6 2.3125 C-3.67471713 -0.01278287 -3.15334102 0.01738975 0 0 Z M-2 3.3125 C-2 5.2925 -2 7.2725 -2 9.3125 C-0.68 8.9825 0.64 8.6525 2 8.3125 C1.67 6.6625 1.34 5.0125 1 3.3125 C0.01 3.3125 -0.98 3.3125 -2 3.3125 Z " fill="#4BAE50" transform="translate(134,25.6875)"/>
<path d="M0 0 C1.7325 0.1546875 1.7325 0.1546875 3.5 0.3125 C5.5 3.3125 5.5 3.3125 5.5 7.3125 C3.19 7.3125 0.88 7.3125 -1.5 7.3125 C-1.5 7.9725 -1.5 8.6325 -1.5 9.3125 C1.965 8.8175 1.965 8.8175 5.5 8.3125 C4.84 9.6325 4.18 10.9525 3.5 12.3125 C0.86 12.3125 -1.78 12.3125 -4.5 12.3125 C-6.23745313 9.65521875 -6.50831972 8.41649645 -6.25 5.1875 C-5.14603241 0.95562424 -4.38511041 0.39152772 0 0 Z M-1.5 3.3125 C-1.5 3.9725 -1.5 4.6325 -1.5 5.3125 C-0.51 5.3125 0.48 5.3125 1.5 5.3125 C1.5 4.6525 1.5 3.9925 1.5 3.3125 C0.51 3.3125 -0.48 3.3125 -1.5 3.3125 Z " fill="#4AAF4F" transform="translate(155.5,25.6875)"/>
<path d="M0 0 C2.5 2 2.5 2 4 4 C2.91332031 4.14695312 2.91332031 4.14695312 1.8046875 4.296875 C-4.14392808 5.21692754 -8.3009104 6.18992735 -13 10 C-12.67 10.66 -12.34 11.32 -12 12 C-12.66 12 -13.32 12 -14 12 C-14.33 12.66 -14.66 13.32 -15 14 C-15.59865471 8.01345291 -15.59865471 8.01345291 -13.95703125 5.234375 C-9.84205828 0.2626188 -6.39869142 -0.97371391 0 0 Z " fill="#E84C58" transform="translate(34,19)"/>
<path d="M0 0 C0.99 0.33 1.98 0.66 3 1 C2.38511719 1.63615234 2.38511719 1.63615234 1.7578125 2.28515625 C-2.03077668 6.40909902 -3.87908934 9.50753777 -5 15 C-7.64 14.67 -10.28 14.34 -13 14 C-13 12.68 -13 11.36 -13 10 C-10.69 10 -8.38 10 -6 10 C-5.938125 9.278125 -5.87625 8.55625 -5.8125 7.8125 C-4.75543353 4.15342375 -2.79449929 2.50788398 0 0 Z " fill="#FEFCFC" transform="translate(23,18)"/>
<path d="M0 0 C0 1.32 0 2.64 0 4 C-0.99 4.33 -1.98 4.66 -3 5 C-3.33 7.64 -3.66 10.28 -4 13 C-5.32 13 -6.64 13 -8 13 C-8 9.04 -8 5.08 -8 1 C-2.25 0 -2.25 0 0 0 Z " fill="#4CAE50" transform="translate(149,25)"/>
<path d="M0 0 C0 1.32 0 2.64 0 4 C-0.99 4.33 -1.98 4.66 -3 5 C-3.33 7.64 -3.66 10.28 -4 13 C-5.32 13 -6.64 13 -8 13 C-8 9.04 -8 5.08 -8 1 C-2.25 0 -2.25 0 0 0 Z " fill="#FFFFFF" transform="translate(75,25)"/>
<path d="M0 0 C1.32 0 2.64 0 4 0 C4 3.96 4 7.92 4 12 C2.68 12 1.36 12 0 12 C0 8.04 0 4.08 0 0 Z " fill="#FFFFFF" transform="translate(76,26)"/>
<path d="M0 0 C2.64 0 5.28 0 8 0 C8 1.32 8 2.64 8 4 C5.36 4 2.72 4 0 4 C0 2.68 0 1.36 0 0 Z " fill="#E63F4B" transform="translate(10,28)"/>
<path d="M0 0 C-1.95330868 1.03041513 -3.91281528 2.0490893 -5.875 3.0625 C-6.96554688 3.63097656 -8.05609375 4.19945312 -9.1796875 4.78515625 C-10.11039063 5.18605469 -11.04109375 5.58695313 -12 6 C-12.66 5.67 -13.32 5.34 -14 5 C-9.43149396 1.08413768 -6.03922093 -1.77473934 0 0 Z " fill="#FBE5E6" transform="translate(34,24)"/>
<path d="M0 0 C1.32 0 2.64 0 4 0 C4 0.99 4 1.98 4 3 C2.68 3 1.36 3 0 3 C0 2.01 0 1.02 0 0 Z " fill="#FFFFFF" transform="translate(76,22)"/>
<path d="M0 0 C1.32 0 2.64 0 4 0 C4 0.66 4 1.32 4 2 C2.68 2 1.36 2 0 2 C0 1.34 0 0.68 0 0 Z " fill="#E63946" transform="translate(5,29)"/>
</svg>
